<?xml version="1.0" ?><svg enable-background="new 0 0 512 512" id="Layer_1" version="1.1" viewBox="0 0 512 512" xml:space="preserve" xmlns="http://www.w3.org/2000/svg" xmlns:xlink="http://www.w3.org/1999/xlink"><g><g><linearGradient gradientUnits="userSpaceOnUse" id="SVGID_1_" x1="-0.0000027" x2="512" y1="256" y2="256"><stop offset="0" style="stop-color:#F67950"/><stop offset="1" style="stop-color:#F15A29"/></linearGradient><circle cx="256" cy="256" fill="url(#SVGID_1_)" r="256"/><linearGradient gradientUnits="userSpaceOnUse" id="SVGID_2_" x1="42.6666641" x2="469.3333435" y1="256.0005188" y2="256.0005188"><stop offset="0" style="stop-color:#F15A29"/><stop offset="1" style="stop-color:#F67950"/></linearGradient><path d="M256,469.3338623c-117.6309967,0-213.3333435-95.7023926-213.3333435-213.3333435    c0-117.6314545,95.7023392-213.333313,213.3333435-213.333313c117.6362,0,213.3333435,95.7018661,213.3333435,213.333313    C469.3333435,373.6314697,373.6362,469.3338623,256,469.3338623z" fill="url(#SVGID_2_)"/></g><g><path d="M144,144v240h240V144H144z M255.0879974,304.1290588H169.625v-25.5130615h85.4629974V304.1290588z     M255.0879974,251.9503937H169.625v-25.5130615h85.4629974V251.9503937z M255.0879974,199.7711945H169.625v-25.5130615h85.4629974    V199.7711945z M361.916748,339.3765259h-85.4629517V174.2581329h85.4629517V339.3765259z" opacity="0.3"/><rect height="10" opacity="0.3" width="57.1285324" x="290.6202087" y="303.7093201"/><rect height="10" opacity="0.3" width="57.1285324" x="290.6202087" y="269.1141357"/><rect height="10" opacity="0.3" width="57.1285324" x="290.6202087" y="234.5200043"/><rect height="10" opacity="0.3" width="57.1285324" x="290.6202087" y="199.9248047"/></g><g><path d="M136,136v240h240V136H136z M247.0879974,296.1290588H161.625v-25.5130615h85.4629974V296.1290588z     M247.0879974,243.9503937H161.625v-25.5130615h85.4629974V243.9503937z M247.0879974,191.7711945H161.625v-25.5130615h85.4629974    V191.7711945z M353.916748,331.3765259h-85.4629517V166.2581329h85.4629517V331.3765259z" fill="#FFFFFF"/><rect fill="#FFFFFF" height="10" width="57.1285324" x="282.6202087" y="295.7093201"/><rect fill="#FFFFFF" height="10" width="57.1285324" x="282.6202087" y="261.1141357"/><rect fill="#FFFFFF" height="10" width="57.1285324" x="282.6202087" y="226.5200043"/><rect fill="#FFFFFF" height="10" width="57.1285324" x="282.6202087" y="191.9248047"/></g></g></svg>