<?xml version="1.0" encoding="iso-8859-1"?>
<!-- Generator: Adobe Illustrator 19.0.0, SVG Export Plug-In . SVG Version: 6.00 Build 0)  -->
<svg version="1.1" id="Layer_1" xmlns="http://www.w3.org/2000/svg" xmlns:xlink="http://www.w3.org/1999/xlink" x="0px" y="0px"
	 viewBox="0 0 512 512" style="enable-background:new 0 0 512 512;" xml:space="preserve">
<rect x="256.001" y="8.313" style="fill:#36A9E1;" width="247.995" height="247.692"/>
<rect x="176.154" y="88.155" style="fill:#5EBAE7;" width="247.995" height="247.692"/>
<rect x="88.312" y="175.997" style="fill:#CBBBA0;" width="247.995" height="247.692"/>
<rect x="8" y="264.623" style="fill:#D5C9B3;" width="247.995" height="239.373"/>
<g>
	<path style="fill:#1D1D1B;" d="M264,512H0.001V256H264V512z M16.001,495.999h232V272h-232V495.999z"/>
	<polygon style="fill:#1D1D1B;" points="344.004,432 272,432 272,416 327.995,416 327.868,184.132 95.999,184.004 95.999,248 
		80,248 80,167.996 343.86,168.14 	"/>
	<polygon style="fill:#1D1D1B;" points="423.999,344 352,344 352,328 408.001,328 408.001,96 184,96 184,160 168,160 168,80 
		423.999,80 	"/>
	<polygon style="fill:#1D1D1B;" points="511.999,264 432.001,264 432.001,248 496,248 496,16.001 264,16.001 264,72 248.001,72 
		248.001,0 511.999,0 	"/>
</g>
<g>
</g>
<g>
</g>
<g>
</g>
<g>
</g>
<g>
</g>
<g>
</g>
<g>
</g>
<g>
</g>
<g>
</g>
<g>
</g>
<g>
</g>
<g>
</g>
<g>
</g>
<g>
</g>
<g>
</g>
</svg>
